<svg width="66" height="66" viewBox="0 0 66 66" fill="none" xmlns="http://www.w3.org/2000/svg">
<rect x="0.162109" width="65.387" height="65.387" rx="16" fill="#FF9B53"/>
<path d="M38.4613 18.0427C37.8025 17.3904 36.9091 17.0239 35.9776 17.0239C35.046 17.0239 34.1526 17.3904 33.4938 18.0427L18.0663 33.3277C17.74 33.651 17.4812 34.0347 17.3046 34.457C17.128 34.8794 17.0371 35.332 17.0371 35.7891C17.0371 36.2462 17.128 36.6989 17.3046 37.1212C17.4812 37.5435 17.74 37.9273 18.0663 38.2505L19.8965 40.0621C20.693 40.8527 21.8127 40.7119 22.4888 40.3128C22.8618 40.0933 23.298 40.0033 23.7284 40.0568C24.1589 40.1102 24.559 40.3042 24.8658 40.6081C25.1725 40.912 25.3684 41.3085 25.4224 41.7349C25.4763 42.1613 25.3854 42.5934 25.1639 42.9629C24.7626 43.6328 24.6189 44.742 25.4169 45.531L27.2487 47.3442C27.575 47.6674 27.9624 47.9238 28.3887 48.0988C28.815 48.2737 29.2719 48.3637 29.7333 48.3637C30.1947 48.3637 30.6517 48.2737 31.078 48.0988C31.5043 47.9238 31.8916 47.6674 32.2179 47.3442L47.6438 32.0622C47.9701 31.739 48.2289 31.3553 48.4055 30.9329C48.5821 30.5106 48.673 30.058 48.673 29.6009C48.673 29.1437 48.5821 28.6911 48.4055 28.2688C48.2289 27.8464 47.9701 27.4627 47.6438 27.1395L45.8151 25.3263C45.0187 24.5373 43.8974 24.6765 43.2212 25.0757C42.8482 25.2951 42.4121 25.3852 41.9817 25.3317C41.5512 25.2782 41.151 25.0842 40.8443 24.7803C40.5376 24.4764 40.3417 24.08 40.2877 23.6536C40.2337 23.2271 40.3247 22.7951 40.5461 22.4255C40.949 21.7557 41.0912 20.6464 40.2932 19.8574L38.4629 18.0427H38.4613Z" fill="white"/>
</svg>
