<svg width="66" height="66" viewBox="0 0 66 66" fill="none" xmlns="http://www.w3.org/2000/svg">
<rect x="0.234375" width="65.387" height="65.387" rx="16" fill="#FDBF00"/>
<path d="M19.4688 40.6668C19.4688 42.1335 20.1249 43.4502 21.1511 44.3668V46.5002C21.1511 47.8835 22.2783 49.0002 23.6747 49.0002C25.071 49.0002 26.1982 47.8835 26.1982 46.5002V45.6668H39.6571V46.5002C39.6571 47.8668 40.7843 49.0002 42.1807 49.0002C43.5602 49.0002 44.7042 47.8835 44.7042 46.5002V44.3668C45.7305 43.4502 46.3866 42.1335 46.3866 40.6668V24.0002C46.3866 18.1668 40.3637 17.3335 32.9277 17.3335C25.4916 17.3335 19.4688 18.1668 19.4688 24.0002V40.6668ZM25.357 42.3335C23.9607 42.3335 22.8335 41.2168 22.8335 39.8335C22.8335 38.4502 23.9607 37.3335 25.357 37.3335C26.7534 37.3335 27.8806 38.4502 27.8806 39.8335C27.8806 41.2168 26.7534 42.3335 25.357 42.3335ZM40.4983 42.3335C39.102 42.3335 37.9748 41.2168 37.9748 39.8335C37.9748 38.4502 39.102 37.3335 40.4983 37.3335C41.8947 37.3335 43.0219 38.4502 43.0219 39.8335C43.0219 41.2168 41.8947 42.3335 40.4983 42.3335ZM43.0219 32.3335H22.8335V24.0002H43.0219V32.3335Z" fill="white"/>
</svg>
