<svg width="66" height="66" viewBox="0 0 66 66" fill="none" xmlns="http://www.w3.org/2000/svg">
<rect x="0.613281" width="65.387" height="65.387" rx="16" fill="#79CA00"/>
<path d="M43.7502 21.0537H22.8629C21.4229 21.0537 20.252 22.2138 20.252 23.6403V41.7462C20.252 43.1727 21.4229 44.3327 22.8629 44.3327H43.7502C45.1901 44.3327 46.3611 43.1727 46.3611 41.7462V23.6403C46.3611 22.2138 45.1901 21.0537 43.7502 21.0537ZM43.7515 28.8134C43.7502 28.8134 43.7502 28.8134 43.7515 28.8134H43.1444L39.6628 23.6403H43.7502L43.7515 28.8134ZM37.8756 36.5731L30.6956 40.4529V32.6932L37.8756 36.5731ZM36.6172 28.8134L33.1355 23.6403H36.5245L40.0061 28.8134H36.6172ZM33.4788 28.8134H30.0899L26.6082 23.6403H29.9972L33.4788 28.8134ZM22.8629 23.6403H23.4699L26.9516 28.8134H22.8629V23.6403Z" fill="white"/>
</svg>
