<svg width="71" height="66" viewBox="0 0 71 66" fill="none" xmlns="http://www.w3.org/2000/svg">
<rect x="0.270508" width="70" height="65.387" rx="16" fill="#4DABFF"/>
<path d="M46.1756 23.7646C45.8605 22.9042 44.9779 22.2917 43.9378 22.2917H39.998V20.8333C39.998 20.0312 39.2889 19.375 38.4221 19.375H32.1184C31.2516 19.375 30.5425 20.0312 30.5425 20.8333V22.2917H26.6027C25.5625 22.2917 24.6958 22.9042 24.3648 23.7646L21.2603 32.0333C21.15 32.3396 21.0869 32.6604 21.0869 32.9958V43.4375C21.0869 44.6479 22.1428 45.625 23.4508 45.625C24.7588 45.625 25.8147 44.6479 25.8147 43.4375V42.7083H44.7258V43.4375C44.7258 44.6333 45.7817 45.625 47.0897 45.625C48.3819 45.625 49.4536 44.6479 49.4536 43.4375V32.9958C49.4536 32.675 49.3905 32.3396 49.2802 32.0333L46.1756 23.7646ZM26.6027 38.3333C25.2946 38.3333 24.2388 37.3563 24.2388 36.1458C24.2388 34.9354 25.2946 33.9583 26.6027 33.9583C27.9107 33.9583 28.9665 34.9354 28.9665 36.1458C28.9665 37.3563 27.9107 38.3333 26.6027 38.3333ZM43.9378 38.3333C42.6298 38.3333 41.5739 37.3563 41.5739 36.1458C41.5739 34.9354 42.6298 33.9583 43.9378 33.9583C45.2459 33.9583 46.3017 34.9354 46.3017 36.1458C46.3017 37.3563 45.2459 38.3333 43.9378 38.3333ZM24.2388 31.0417L26.6027 24.4792H43.9378L46.3017 31.0417H24.2388Z" fill="white"/>
</svg>
