<svg width="30" height="31" viewBox="0 0 30 31" fill="none" xmlns="http://www.w3.org/2000/svg">
<g clip-path="url(#clip0_1003_4181)">
<path d="M15.0001 1.58789C7.0471 1.58789 0.600098 8.03489 0.600098 15.9879C0.600098 23.9409 7.0471 30.3879 15.0001 30.3879C22.9531 30.3879 29.4001 23.9409 29.4001 15.9879C29.4001 8.03489 22.9531 1.58789 15.0001 1.58789ZM18.4111 11.5389H16.2466C15.9901 11.5389 15.7051 11.8764 15.7051 12.3249V13.8879H18.4126L18.0031 16.1169H15.7051V22.8084H13.1506V16.1169H10.8331V13.8879H13.1506V12.5769C13.1506 10.6959 14.4556 9.16739 16.2466 9.16739H18.4111V11.5389Z" fill="white"/>
</g>
<defs>
<clipPath id="clip0_1003_4181">
<rect width="30" height="30" fill="white" transform="translate(0 0.987793)"/>
</clipPath>
</defs>
</svg>
