<svg width="30" height="31" viewBox="0 0 30 31" fill="none" xmlns="http://www.w3.org/2000/svg">
<g clip-path="url(#clip0_1003_4185)">
<path d="M19.5001 15.9879C19.5001 17.1814 19.026 18.326 18.1821 19.1699C17.3382 20.0138 16.1936 20.4879 15.0001 20.4879C13.8066 20.4879 12.662 20.0138 11.8181 19.1699C10.9742 18.326 10.5001 17.1814 10.5001 15.9879C10.5001 15.7314 10.5271 15.4809 10.5736 15.2379H9.0001V21.2334C9.0001 21.6504 9.3376 21.9879 9.7546 21.9879H20.2471C20.4469 21.9875 20.6385 21.9078 20.7796 21.7664C20.9208 21.6249 21.0001 21.4332 21.0001 21.2334V15.2379H19.4266C19.4731 15.4809 19.5001 15.7314 19.5001 15.9879V15.9879ZM15.0001 18.9879C15.3942 18.9878 15.7844 18.9101 16.1484 18.7592C16.5124 18.6083 16.8432 18.3872 17.1217 18.1085C17.4003 17.8297 17.6213 17.4989 17.772 17.1348C17.9227 16.7707 18.0002 16.3805 18.0001 15.9864C18 15.5923 17.9223 15.2021 17.7714 14.8381C17.6205 14.4741 17.3994 14.1433 17.1207 13.8648C16.842 13.5862 16.5111 13.3652 16.147 13.2145C15.7829 13.0638 15.3927 12.9863 14.9986 12.9864C14.2028 12.9866 13.4396 13.3029 12.877 13.8658C12.3144 14.4287 11.9984 15.192 11.9986 15.9879C11.9988 16.7837 12.3151 17.5469 12.878 18.1095C13.4409 18.6721 14.2043 18.9881 15.0001 18.9879V18.9879ZM18.6001 12.8379H20.3986C20.5181 12.8379 20.6327 12.7905 20.7173 12.7062C20.802 12.6218 20.8497 12.5074 20.8501 12.3879V10.5894C20.8501 10.4696 20.8025 10.3548 20.7179 10.2701C20.6332 10.1855 20.5183 10.1379 20.3986 10.1379H18.6001C18.4804 10.1379 18.3655 10.1855 18.2808 10.2701C18.1962 10.3548 18.1486 10.4696 18.1486 10.5894V12.3879C18.1501 12.6354 18.3526 12.8379 18.6001 12.8379V12.8379ZM15.0001 1.58789C11.181 1.58789 7.51828 3.10503 4.81776 5.80555C2.11724 8.50608 0.600098 12.1688 0.600098 15.9879C0.600098 19.807 2.11724 23.4697 4.81776 26.1702C7.51828 28.8708 11.181 30.3879 15.0001 30.3879C16.8911 30.3879 18.7637 30.0154 20.5107 29.2918C22.2578 28.5681 23.8453 27.5074 25.1824 26.1702C26.5196 24.8331 27.5803 23.2456 28.304 21.4985C29.0276 19.7514 29.4001 17.8789 29.4001 15.9879C29.4001 14.0969 29.0276 12.2243 28.304 10.4772C27.5803 8.73016 26.5196 7.14272 25.1824 5.80555C23.8453 4.46839 22.2578 3.40769 20.5107 2.68403C18.7637 1.96036 16.8911 1.58789 15.0001 1.58789V1.58789ZM22.5001 21.8214C22.5001 22.7379 21.7501 23.4879 20.8336 23.4879H9.1666C8.2501 23.4879 7.5001 22.7379 7.5001 21.8214V10.1544C7.5001 9.23789 8.2501 8.48789 9.1666 8.48789H20.8336C21.7501 8.48789 22.5001 9.23789 22.5001 10.1544V21.8214V21.8214Z" fill="white"/>
</g>
<defs>
<clipPath id="clip0_1003_4185">
<rect width="30" height="30" fill="white" transform="translate(0 0.987793)"/>
</clipPath>
</defs>
</svg>
