<svg width="30" height="31" viewBox="0 0 30 31" fill="none" xmlns="http://www.w3.org/2000/svg">
<g clip-path="url(#clip0_1003_4183)">
<path d="M15.0001 1.58789C7.0471 1.58789 0.600098 8.03489 0.600098 15.9879C0.600098 23.9409 7.0471 30.3879 15.0001 30.3879C22.9531 30.3879 29.4001 23.9409 29.4001 15.9879C29.4001 8.03489 22.9531 1.58789 15.0001 1.58789ZM20.8576 13.3839C20.8636 13.5069 20.8651 13.6299 20.8651 13.7499C20.8651 17.4999 18.0136 21.8214 12.7966 21.8214C11.255 21.824 9.74555 21.3812 8.4496 20.5464C8.6701 20.5734 8.8966 20.5839 9.1261 20.5839C10.4551 20.5839 11.6776 20.1324 12.6481 19.3704C12.0567 19.3588 11.4836 19.1629 11.0088 18.8102C10.5339 18.4574 10.181 17.9653 9.9991 17.4024C10.4238 17.4832 10.8614 17.4662 11.2786 17.3529C10.6367 17.2231 10.0594 16.8753 9.64466 16.3684C9.22993 15.8615 9.00326 15.2268 9.0031 14.5719V14.5374C9.3856 14.7489 9.8236 14.8779 10.2886 14.8929C9.6868 14.4923 9.26078 13.8769 9.09767 13.1726C8.93456 12.4683 9.04668 11.7283 9.4111 11.1039C10.1235 11.9799 11.012 12.6965 12.019 13.2074C13.0259 13.7182 14.1289 14.0119 15.2566 14.0694C15.1132 13.4609 15.1749 12.822 15.4321 12.2521C15.6893 11.6823 16.1275 11.2134 16.6787 10.9183C17.2299 10.6232 17.8631 10.5185 18.4799 10.6204C19.0968 10.7223 19.6627 11.0252 20.0896 11.4819C20.7244 11.3563 21.3331 11.1235 21.8896 10.7934C21.678 11.4506 21.2351 12.0087 20.6431 12.3639C21.2054 12.2962 21.7544 12.145 22.2721 11.9154C21.8918 12.4852 21.4128 12.9825 20.8576 13.3839Z" fill="white"/>
</g>
<defs>
<clipPath id="clip0_1003_4183">
<rect width="30" height="30" fill="white" transform="translate(0 0.987793)"/>
</clipPath>
</defs>
</svg>
